<?xml version="1.0" encoding="UTF-8"?>
<svg xmlns="http://www.w3.org/2000/svg" fill="none" height="512" viewBox="0 0 512 512" width="512">
  <g clip-rule="evenodd" fill-rule="evenodd">
    <path d="m256 480c123.712 0 224-100.288 224-224s-100.288-224-224-224-224 100.288-224 224 100.288 224 224 224z" fill="#2a2faf"></path>
    <path d="m32 256h224v-160h-156.7674c-41.4896 40.657-67.2326 97.322-67.2326 160z" fill="#2a2faf"></path>
    <path d="m69.7812 131.481 178.8798 124.517h7.351v-4.978l-181.4928-126.336c-1.62 2.235-3.1996 4.501-4.738 6.797z" fill="#e92b2b"></path>
    <path d="m67.5 134.947 173.903 121.052h7.251l-178.8791-124.517c-.7687 1.148-1.527 2.303-2.2749 3.465zm7.0128-10.262 181.4932 126.336v-5.048l-179.0301-124.621c-.831 1.103-1.6521 2.214-2.4631 3.333z" fill="#fbfbfb"></path>
    <path d="m39.3516 256 216.6484-150.808v-9.192h-1.298l-222.6469 154.984c-.0367 1.667-.0551 3.339-.0551 5.016z" fill="#e92b2b"></path>
    <path d="m32.0625 250.984 222.6475-154.984h-7.252l-215.2232 149.816c-.0768 1.717-.1343 3.44-.1723 5.168zm223.9445-145.792-216.648 150.808h7.2517l209.3963-145.76z" fill="#fbfbfb"></path>
    <path d="m73.4375 126.177 182.5665 127.031v-10.094l-177.6333-123.598c-1.6843 2.189-3.3291 4.409-4.9332 6.661z" fill="#fbfbfb"></path>
    <path d="m32.0312 253.198 223.9828-155.8487v-1.3493h-12.568l-211.0524 146.852c-.1985 3.429-.3198 6.878-.3624 10.346z" fill="#fbfbfb"></path>
    <path d="m42.3125 188.632h89.6925v67.368h24v-67.368h100v-25.264h-100v-67.368h-24v67.368h-80.0099c-3.7158 8.171-6.9551 16.604-9.6826 25.264z" fill="#e92b2b"></path>
    <path d="m41.0312 192.842h86.9728v63.158h8v-67.368-4.211h-4-88.3199c-.9379 2.783-1.8226 5.59-2.6529 8.421zm9.1004-25.263h81.8724 4v-4.211-67.368h-8v63.158h-74.0417c-1.3329 2.776-2.6102 5.583-3.8307 8.421zm109.8724 25.263h96v-8.421h-100-4v4.211 67.368h8zm0-33.684v-63.158h-8v67.368 4.211h4 100v-8.421z" fill="#fbfbfb"></path>
  </g>
  <path d="m136.011 280 8.981 27.639h29.061l-23.511 17.082 8.98 27.64-23.511-17.082-23.511 17.082 8.98-27.64-23.5112-17.082h29.0612z" fill="#fbfbfb"></path>
  <path d="m299.99 208 4.49 13.82h14.531l-11.756 8.541 4.491 13.819-11.756-8.541-11.756 8.541 4.49-13.819-11.755-8.541h14.531z" fill="#fbfbfb"></path>
  <path d="m363.99 352 4.49 13.82h14.531l-11.756 8.541 4.491 13.819-11.756-8.541-11.756 8.541 4.49-13.819-11.755-8.541h14.531z" fill="#fbfbfb"></path>
  <path d="m371.99 144 4.49 13.82h14.531l-11.756 8.541 4.491 13.819-11.756-8.541-11.756 8.541 4.49-13.819-11.755-8.541h14.531z" fill="#fbfbfb"></path>
  <path d="m427.99 224 4.49 13.82h14.531l-11.756 8.541 4.491 13.819-11.756-8.541-11.756 8.541 4.49-13.819-11.755-8.541h14.531z" fill="#fbfbfb"></path>
  <path d="m383.998 272 3.592 11.056h11.625l-9.405 6.833 3.593 11.055-9.405-6.833-9.404 6.833 3.592-11.055-9.405-6.833h11.625z" fill="#fbfbfb"></path>
</svg>
